P3
3 3
255
255 255 255 255 255 255 255 255 255
255 255 255   0   0   1 255 255 255
255 255 255 255 255 255 255 255 255
